<svg xmlns="http://www.w3.org/2000/svg" width="2000" height="233" viewBox="0 0 2000 233" version="1.1">
	<path d="M 97.955 1.099 C 81.158 3.272, 61.020 11.557, 47.172 21.992 C 15.522 45.840, -1.617 84.384, 0.296 127.407 C 1.792 161.058, 16.023 189.812, 40.197 208.027 C 60.936 223.655, 85.571 231.215, 115.479 231.132 C 141.943 231.057, 168.845 223.962, 185.830 212.576 C 197.304 204.884, 196.996 205.949, 197.024 173.938 C 197.037 158.847, 197.457 144.735, 197.957 142.577 C 199.794 134.660, 205.092 130.416, 214.628 129.225 L 220.500 128.492 220.500 124.996 L 220.500 121.500 170.500 121.500 L 120.500 121.500 120.173 123.805 C 119.648 127.513, 121.700 128.998, 127.372 129.015 C 133.687 129.033, 143.790 131.342, 148.850 133.923 C 153.762 136.430, 159.397 142.714, 161.129 147.619 C 162.096 150.355, 162.500 156.809, 162.500 169.500 C 162.500 186.947, 162.417 187.676, 159.812 193.236 C 154.755 204.026, 143.050 212.871, 129 216.519 C 119.200 219.064, 101.795 218.183, 92.720 214.682 C 75.277 207.954, 61.493 194.066, 51.963 173.619 C 43.983 156.495, 40.128 138.668, 39.289 115 C 37.163 55.051, 63.830 15.576, 107.998 13.293 C 135.199 11.887, 159.711 26.457, 180.014 56.100 C 186.840 66.066, 188.382 66.772, 193.077 62.077 C 196.512 58.642, 196.749 55.732, 194.479 44.815 C 191.457 30.275, 188.082 21.844, 183.505 17.402 C 171.130 5.392, 128.127 -2.803, 97.955 1.099 M 594.996 3.224 C 591.713 5.436, 590.032 9.559, 556.367 98.019 C 537.009 148.883, 519.712 193.353, 517.930 196.840 C 511.431 209.552, 498.340 220, 488.912 220 C 484.576 220, 481.752 222.260, 482.197 225.375 C 482.500 227.498, 482.545 227.500, 523.750 227.761 L 565 228.022 565 224.986 C 565 221.416, 562.339 220, 555.631 220 C 549.436 220, 541.886 215.922, 539.186 211.117 C 535.401 204.382, 536.114 199.159, 544.087 175.239 L 551.174 153.977 589.730 154.238 L 628.286 154.500 637.199 177.500 C 646.746 202.134, 648.269 208.645, 645.665 213.681 C 643.737 217.408, 638.657 219.960, 632.849 220.118 C 630.457 220.183, 627.150 220.525, 625.500 220.878 C 622.862 221.442, 622.500 221.941, 622.500 225.010 L 622.500 228.500 668.728 228.760 L 714.957 229.020 715.590 226.497 C 716.494 222.895, 714.712 221.352, 708.733 220.561 C 705.855 220.180, 701.700 219.068, 699.500 218.089 C 694.785 215.992, 688.056 208.969, 684.897 202.849 C 683.662 200.457, 665.896 154.175, 645.418 100 L 608.185 1.500 603.307 1.205 C 599.535 0.977, 597.651 1.435, 594.996 3.224 M 812.390 2.496 C 796.431 5.316, 779.093 12.817, 766.296 22.437 C 758.797 28.074, 747.474 39.937, 742.258 47.623 C 717.517 84.078, 713.250 136.373, 731.908 174.477 C 745.569 202.375, 768.766 220.694, 800.500 228.644 C 814.421 232.131, 838.263 233, 853.100 230.561 C 872.448 227.381, 895.552 218.060, 904.067 210 C 907.044 207.182, 908.389 204.552, 910.970 196.500 C 914.755 184.690, 917.948 170.856, 917.978 166.132 C 917.995 163.538, 917.109 161.873, 914.118 158.882 C 908.348 153.112, 907.152 153.593, 902.620 163.503 C 890.291 190.467, 869.025 211.336, 847.560 217.537 C 835.038 221.154, 815.357 217.614, 801.632 209.276 C 775.688 193.516, 759.747 156.164, 759.689 111 C 759.644 75.512, 769.049 48.561, 787.630 30.930 C 809.639 10.046, 838.354 8.803, 866.500 27.515 C 878.877 35.744, 891.927 49.705, 900.253 63.626 C 902.902 68.055, 903.954 69, 906.234 69 C 909.503 69, 912.677 66.135, 913.635 62.319 C 915.437 55.140, 907.829 28.031, 902.294 21.904 C 896.245 15.208, 877.417 7.007, 859.975 3.470 C 849.089 1.263, 822.453 0.717, 812.390 2.496 M 1051 2.050 C 990.181 9.559, 948.715 65.806, 954.121 133.460 C 956.701 165.737, 970.498 192.315, 994.176 210.616 C 1006.502 220.143, 1023.879 227.531, 1041.409 230.697 C 1054.851 233.125, 1077.596 232.849, 1090.778 230.097 C 1109.457 226.197, 1130.689 217.098, 1137.949 209.882 C 1142.308 205.549, 1150.917 177.139, 1150.978 166.885 C 1151.003 162.753, 1148.278 158.712, 1143.961 156.480 C 1139.877 154.368, 1139.654 154.486, 1137.767 159.750 C 1135.353 166.483, 1127.912 179.171, 1121.360 187.726 C 1110.568 201.815, 1097.960 211.673, 1084.242 216.748 C 1067.506 222.939, 1043.480 217.642, 1027.335 204.201 C 1003.348 184.232, 990.245 143.653, 993.202 98.500 C 996.415 49.434, 1024.492 14.475, 1060.500 14.705 C 1085.955 14.868, 1112.550 32.084, 1131.090 60.400 C 1138.072 71.065, 1139.404 71.750, 1144.077 67.077 C 1146.507 64.647, 1146.998 63.339, 1146.985 59.327 C 1146.956 49.890, 1140.516 27.955, 1136.304 22.949 C 1130.243 15.746, 1109.165 6.773, 1090.795 3.576 C 1079.482 1.607, 1060.484 0.879, 1051 2.050 M 1420.500 1.735 C 1375.625 3.844, 1338.714 32.113, 1323.121 76.312 C 1317.640 91.848, 1315.715 103.531, 1315.673 121.500 C 1315.594 155.079, 1324.564 179.720, 1344.597 200.956 C 1372.588 230.628, 1425.004 241.411, 1464.581 225.639 C 1501.053 211.105, 1525.981 179.099, 1533.649 136.961 C 1536 124.042, 1535.995 99.615, 1533.639 87.646 C 1525.150 44.511, 1497.075 14.818, 1455.427 4.926 C 1446.625 2.836, 1429.795 1.298, 1420.500 1.735 M 243.390 4.427 C 243.088 5.212, 242.990 6.882, 243.171 8.139 C 243.462 10.162, 244.364 10.556, 251.061 11.588 C 262.353 13.328, 267.223 16.503, 270.452 24.232 C 271.809 27.479, 271.999 38.643, 271.994 114.718 C 271.991 171.328, 271.630 202.793, 270.956 205.219 C 268.679 213.417, 261.205 218.683, 250.414 219.690 C 243.451 220.341, 241.262 222.099, 242.512 226.038 C 243.119 227.950, 244.311 228, 289.500 228 C 334.689 228, 335.881 227.950, 336.488 226.038 C 337.653 222.367, 335.363 220, 330.646 220 C 320.215 220, 310.834 214.209, 308.133 206.101 C 307.373 203.822, 307 190.880, 307 166.851 L 307 131 319.324 131 L 331.647 131 340.211 142.750 C 344.921 149.213, 354.074 162.150, 360.551 171.500 C 384.820 206.534, 394.364 217.104, 407.676 223.687 L 415.387 227.500 440.194 227.799 C 463.975 228.085, 465 228.020, 465 226.204 C 465 223.330, 462.151 221.325, 454.285 218.663 C 438.551 213.340, 427.092 202.871, 406.325 174.843 C 399.271 165.324, 388.652 151.050, 382.727 143.124 C 376.802 135.198, 372.121 128.545, 372.326 128.341 C 372.530 128.137, 375.302 127.291, 378.485 126.462 C 405.411 119.448, 423.400 103.370, 428.494 81.760 C 430.369 73.811, 430.389 57.499, 428.536 48.754 C 423.921 26.976, 408.979 12.758, 384.633 6.975 C 371.375 3.827, 354.581 3.074, 296.719 3.035 C 251.897 3.005, 243.855 3.215, 243.390 4.427 M 1880.500 3.922 C 1879.400 4.385, 1877.765 5.605, 1876.866 6.632 C 1875.968 7.659, 1859.392 50.125, 1840.030 101 C 1820.669 151.875, 1803.418 196.200, 1801.695 199.500 C 1797.271 207.972, 1787.680 217.228, 1780.567 219.889 C 1777.464 221.050, 1773.624 222, 1772.034 222 C 1769.284 222, 1766 224.171, 1766 225.990 C 1766 230.073, 1765.236 230, 1808.107 230 L 1849 230 1849 227.200 C 1849 223.205, 1847.302 222.008, 1841.550 221.946 C 1829.678 221.818, 1821.947 215.419, 1821.201 205.102 C 1820.823 199.874, 1821.566 196.881, 1828.030 177.618 L 1835.283 156 1873.891 156.017 L 1912.500 156.034 1921.405 179.267 C 1931.086 204.521, 1932.637 211.572, 1929.551 216.282 C 1927.375 219.602, 1921.238 222, 1914.914 222 C 1908.279 222, 1906 223.290, 1906 227.045 L 1906 230.020 1952.750 229.760 L 1999.500 229.500 1999.816 226.750 C 2000.069 224.557, 1999.601 223.799, 1997.501 223 C 1996.054 222.450, 1993.437 221.996, 1991.685 221.990 C 1987.038 221.976, 1978.972 217.871, 1975.241 213.622 C 1973.456 211.589, 1970.785 207.580, 1969.305 204.713 C 1967.824 201.846, 1949.920 155.400, 1929.518 101.500 L 1892.424 3.500 1887.462 3.290 C 1884.733 3.175, 1881.600 3.459, 1880.500 3.922 M 1187.028 5.948 C 1185.188 9.386, 1187.289 11.786, 1192.753 12.487 C 1205.707 14.150, 1212.302 18.388, 1214.774 26.640 C 1216.426 32.153, 1216.540 199.482, 1214.896 205.500 C 1212.436 214.506, 1205.161 219.896, 1194.289 220.769 C 1187.541 221.311, 1185.659 222.569, 1186.173 226.195 L 1186.500 228.500 1233.250 228.760 L 1280 229.020 1280 226.132 C 1280 222.250, 1278.582 221.359, 1271.428 220.744 C 1261.917 219.926, 1256.390 216.520, 1252.371 209 C 1250.582 205.654, 1250.503 201.648, 1250.575 118 C 1250.632 51.504, 1250.945 29.615, 1251.882 26.812 C 1254.638 18.563, 1261.094 14.197, 1272.367 12.960 C 1278.783 12.255, 1280.969 11.122, 1280.969 8.500 C 1280.969 5.463, 1278.791 5.282, 1233.813 4.594 C 1188.409 3.900, 1188.119 3.908, 1187.028 5.948 M 1581.644 7.265 C 1579.888 9.021, 1578.099 14.805, 1573.680 33.015 C 1570.546 45.932, 1567.986 57.423, 1567.991 58.550 C 1568.004 61.484, 1569.917 63, 1573.608 63 C 1576.528 63, 1577.333 62.223, 1582.581 54.335 C 1593.845 37.406, 1607.979 25.127, 1622.224 19.896 C 1628.219 17.695, 1629.989 17.576, 1661.750 17.235 C 1680.037 17.038, 1695 17.179, 1695 17.547 C 1695 17.915, 1664.625 64.469, 1627.500 121 C 1590.375 177.531, 1560 224.716, 1560 225.857 C 1560 226.997, 1560.885 228.403, 1561.966 228.982 C 1563.309 229.700, 1589.769 229.950, 1645.295 229.767 L 1726.656 229.500 1730.329 226.698 C 1732.349 225.157, 1734.621 222.682, 1735.378 221.198 C 1737.279 217.469, 1749 178.891, 1749 176.363 C 1749 173.506, 1745.897 170.993, 1742.421 171.036 C 1739.900 171.066, 1738.952 171.982, 1735.500 177.723 C 1730.007 186.857, 1714.361 202.472, 1704.741 208.420 C 1700.474 211.059, 1693.499 214.367, 1689.241 215.771 C 1682.116 218.120, 1679.788 218.354, 1660 218.704 C 1648.175 218.913, 1631.384 218.728, 1622.686 218.292 L 1606.871 217.500 1674.936 113.820 C 1712.371 56.796, 1743 9.423, 1743 8.546 C 1743 7.668, 1741.846 6.512, 1740.435 5.975 C 1738.849 5.372, 1708.487 5, 1660.889 5 L 1583.909 5 1581.644 7.265 M 311.656 16.133 C 307.221 18.711, 307 21.287, 307 70.468 L 307 117 327.750 116.983 C 351.354 116.963, 358.753 115.848, 368.007 110.916 C 383.880 102.455, 391.963 85.137, 390.603 62.500 C 389.947 51.582, 388.348 44.415, 385.045 37.594 C 380.022 27.217, 369.820 19.584, 356.907 16.540 C 349.194 14.722, 314.619 14.411, 311.656 16.133 M 1406.500 16.867 C 1396.874 19.633, 1390.052 23.883, 1381.458 32.467 C 1374.708 39.209, 1372.583 42.188, 1368.237 51 C 1359.118 69.492, 1355.199 91.294, 1356.302 117.404 C 1357.605 148.230, 1364.134 171.762, 1376.633 190.684 C 1391.639 213.400, 1415.456 223.788, 1440.412 218.501 C 1468.815 212.484, 1487.889 187.494, 1493.569 148.858 C 1495.860 133.278, 1495.138 104.042, 1492.087 88.792 C 1484.302 49.888, 1467.028 25.512, 1441.496 17.404 C 1432.019 14.395, 1415.960 14.148, 1406.500 16.867 M 571.313 94.192 C 562.520 120.211, 555.504 141.838, 555.722 142.250 C 556.106 142.978, 624 143.364, 624 142.638 C 624 142.439, 615.743 120.812, 605.650 94.580 L 587.301 46.883 571.313 94.192 M 1855.645 95.744 C 1847.024 121.460, 1839.977 142.838, 1839.985 143.250 C 1839.993 143.662, 1855.348 144, 1874.107 144 C 1906.191 144, 1908.172 143.896, 1907.512 142.250 C 1907.126 141.287, 1898.957 120.041, 1889.358 95.036 C 1879.759 70.031, 1871.774 49.440, 1871.613 49.280 C 1871.452 49.119, 1864.267 70.028, 1855.645 95.744" stroke="none" fill="#000000" fill-rule="evenodd"/>
</svg>